<svg id="behance" xmlns="http://www.w3.org/2000/svg" width="40" height="40" viewBox="0 0 40 40">
  <g id="Group_109" data-name="Group 109" transform="translate(0 0)">
    <circle id="Ellipse_1" data-name="Ellipse 1" cx="20" cy="20" r="20" fill="#4176fa"/>
  </g>
  <g id="Group_110" data-name="Group 110" transform="translate(8.218 12.719)">
    <path id="Path_64" data-name="Path 64" d="M41.836,39.406c-5.754,0-5.761,5.732-5.761,5.761a5.325,5.325,0,0,0,5.761,5.739s5.133.292,5.133-3.994H44.334s.087,1.614-2.41,1.614a2.437,2.437,0,0,1-2.636-2.607h7.769S47.911,39.406,41.836,39.406Zm-2.578,4.505A2.677,2.677,0,0,1,41.895,41.6a2.223,2.223,0,0,1,2.285,2.307Zm-6.586-1.475a2.6,2.6,0,0,0,2.285-2.855c0-2.68-1.869-3.994-4.242-3.994H22.91v15h7.805s4.768.146,4.768-4.432C35.484,46.16,35.688,42.436,32.673,42.436Zm-6.324-4.184h4.366s1.059,0,1.059,1.562S31.154,41.6,30.445,41.6h-4.1ZM30.5,47.927H26.349V43.911h4.366s1.585-.015,1.577,2.066C32.293,47.73,31.118,47.912,30.5,47.927ZM38.609,36.47v1.848H44.8V36.47Z" transform="translate(-22.91 -35.587)" fill="#f1f2f2"/>
  </g>
</svg>
