<svg xmlns="http://www.w3.org/2000/svg" width="100.518" height="80.059" viewBox="0 0 100.518 80.059">
  <g id="diploma" transform="translate(0 -52.105)">
    <g id="Group_28" data-name="Group 28" transform="translate(0 52.105)">
      <g id="Group_27" data-name="Group 27">
        <path id="Path_7" data-name="Path 7" d="M95.9,52.1H4.62A4.625,4.625,0,0,0,0,56.725v66.1a4.625,4.625,0,0,0,4.62,4.62H61.275a1.472,1.472,0,0,0,0-2.945H4.62a1.677,1.677,0,0,1-1.675-1.675v-66.1A1.677,1.677,0,0,1,4.62,55.05H95.9a1.677,1.677,0,0,1,1.675,1.675v66.1A1.677,1.677,0,0,1,95.9,124.5H83.308a1.472,1.472,0,0,0,0,2.945H95.9a4.625,4.625,0,0,0,4.62-4.62v-66.1A4.625,4.625,0,0,0,95.9,52.1Z" transform="translate(0 -52.105)"/>
      </g>
    </g>
    <g id="Group_30" data-name="Group 30" transform="translate(6.295 58.4)">
      <g id="Group_29" data-name="Group 29" transform="translate(0 0)">
        <path id="Path_8" data-name="Path 8" d="M118.52,93.612a7.979,7.979,0,0,1-7.97-7.97,1.472,1.472,0,0,0-1.472-1.472h-66.1a1.472,1.472,0,0,0-1.472,1.472,7.979,7.979,0,0,1-7.97,7.97,1.472,1.472,0,0,0-1.472,1.472V136a1.472,1.472,0,0,0,1.472,1.472,7.979,7.979,0,0,1,7.97,7.97,1.472,1.472,0,0,0,1.472,1.472H87.044a1.472,1.472,0,0,0,0-2.945H44.353a10.939,10.939,0,0,0-9.344-9.344V96.458a10.939,10.939,0,0,0,9.344-9.344H107.7a10.939,10.939,0,0,0,9.344,9.344v38.171a10.932,10.932,0,0,0-9.443,10.816,1.472,1.472,0,1,0,2.945,0,7.979,7.979,0,0,1,7.97-7.97A1.472,1.472,0,0,0,119.992,136V95.084A1.472,1.472,0,0,0,118.52,93.612Z" transform="translate(-32.064 -84.169)"/>
      </g>
    </g>
    <g id="Group_32" data-name="Group 32" transform="translate(6.303 58.4)">
      <g id="Group_31" data-name="Group 31" transform="translate(0 0)">
        <path id="Path_9" data-name="Path 9" d="M33.585,84.169H33.57a1.48,1.48,0,1,0,.016,0Z" transform="translate(-32.105 -84.169)"/>
      </g>
    </g>
    <g id="Group_34" data-name="Group 34" transform="translate(91.286 118.203)">
      <g id="Group_33" data-name="Group 33">
        <path id="Path_10" data-name="Path 10" d="M466.456,388.782h-.016a1.48,1.48,0,1,0,.016,0Z" transform="translate(-464.976 -388.782)"/>
      </g>
    </g>
    <g id="Group_36" data-name="Group 36" transform="translate(6.303 118.203)">
      <g id="Group_35" data-name="Group 35">
        <path id="Path_11" data-name="Path 11" d="M33.584,388.782h-.016a1.48,1.48,0,1,0,.016,0Z" transform="translate(-32.104 -388.782)"/>
      </g>
    </g>
    <g id="Group_38" data-name="Group 38" transform="translate(91.27 58.4)">
      <g id="Group_37" data-name="Group 37" transform="translate(0 0)">
        <path id="Path_12" data-name="Path 12" d="M466.376,84.169h-.016a1.48,1.48,0,1,0,.016,0Z" transform="translate(-464.896 -84.169)"/>
      </g>
    </g>
    <g id="Group_40" data-name="Group 40" transform="translate(61.377 93.023)">
      <g id="Group_39" data-name="Group 39" transform="translate(0 0)">
        <path id="Path_13" data-name="Path 13" d="M323.544,260.524a10.91,10.91,0,0,0-6.194,19.9v17.774a1.472,1.472,0,0,0,2.289,1.225l3.9-2.6,3.9,2.6a1.472,1.472,0,0,0,2.289-1.225V280.42a10.91,10.91,0,0,0-6.194-19.9Zm3.249,34.918-2.432-1.621a1.472,1.472,0,0,0-1.633,0l-2.432,1.621V281.86a10.935,10.935,0,0,0,6.5,0Zm-3.249-16.032a7.97,7.97,0,1,1,7.97-7.97A7.979,7.979,0,0,1,323.544,279.409Z" transform="translate(-312.629 -260.524)"/>
      </g>
    </g>
    <g id="Group_42" data-name="Group 42" transform="translate(67.672 99.739)">
      <g id="Group_41" data-name="Group 41" transform="translate(0 0)">
        <path id="Path_14" data-name="Path 14" d="M352.778,299.233a1.472,1.472,0,0,0-2.012.536,1.675,1.675,0,1,1-2.288-2.289A1.472,1.472,0,1,0,347,294.932a4.62,4.62,0,1,0,6.312,6.313A1.472,1.472,0,0,0,352.778,299.233Z" transform="translate(-344.694 -294.733)"/>
      </g>
    </g>
    <g id="Group_44" data-name="Group 44" transform="translate(37.77 69.416)">
      <g id="Group_43" data-name="Group 43">
        <path id="Path_15" data-name="Path 15" d="M215.892,140.282H193.859a1.472,1.472,0,1,0,0,2.945h22.033a1.472,1.472,0,1,0,0-2.945Z" transform="translate(-192.387 -140.282)"/>
      </g>
    </g>
    <g id="Group_46" data-name="Group 46" transform="translate(31.475 75.712)">
      <g id="Group_45" data-name="Group 45" transform="translate(0 0)">
        <path id="Path_16" data-name="Path 16" d="M168.09,172.347H161.8a1.472,1.472,0,0,0,0,2.945h6.295a1.472,1.472,0,0,0,0-2.945Z" transform="translate(-160.323 -172.347)"/>
      </g>
    </g>
    <g id="Group_48" data-name="Group 48" transform="translate(44.066 75.712)">
      <g id="Group_47" data-name="Group 47" transform="translate(0 0)">
        <path id="Path_17" data-name="Path 17" d="M247.96,172.347H225.927a1.472,1.472,0,0,0,0,2.945H247.96a1.472,1.472,0,1,0,0-2.945Z" transform="translate(-224.455 -172.347)"/>
      </g>
    </g>
    <g id="Group_50" data-name="Group 50" transform="translate(22.033 86.728)">
      <g id="Group_49" data-name="Group 49">
        <path id="Path_18" data-name="Path 18" d="M167.206,228.459H113.7a1.472,1.472,0,0,0,0,2.945h53.508a1.472,1.472,0,0,0,0-2.945Z" transform="translate(-112.226 -228.459)"/>
      </g>
    </g>
    <g id="Group_52" data-name="Group 52" transform="translate(34.623 93.023)">
      <g id="Group_51" data-name="Group 51" transform="translate(0 0)">
        <path id="Path_19" data-name="Path 19" d="M201.435,260.524H177.829a1.472,1.472,0,0,0,0,2.945h23.606a1.472,1.472,0,0,0,0-2.945Z" transform="translate(-176.357 -260.524)"/>
      </g>
    </g>
    <g id="Group_54" data-name="Group 54" transform="translate(22.033 93.023)">
      <g id="Group_53" data-name="Group 53" transform="translate(0 0)">
        <path id="Path_20" data-name="Path 20" d="M119.993,260.524H113.7a1.472,1.472,0,0,0,0,2.945h6.295a1.472,1.472,0,0,0,0-2.945Z" transform="translate(-112.226 -260.524)"/>
      </g>
    </g>
    <g id="Group_56" data-name="Group 56" transform="translate(22.033 99.318)">
      <g id="Group_55" data-name="Group 55">
        <path id="Path_21" data-name="Path 21" d="M146.747,292.589H113.7a1.472,1.472,0,0,0,0,2.945h33.049a1.472,1.472,0,1,0,0-2.945Z" transform="translate(-112.226 -292.589)"/>
      </g>
    </g>
    <g id="Group_58" data-name="Group 58" transform="translate(22.033 105.613)">
      <g id="Group_57" data-name="Group 57">
        <path id="Path_22" data-name="Path 22" d="M135.731,324.653H113.7a1.472,1.472,0,0,0,0,2.945h22.033a1.472,1.472,0,0,0,0-2.945Z" transform="translate(-112.226 -324.653)"/>
      </g>
    </g>
    <g id="Group_60" data-name="Group 60" transform="translate(50.36 105.613)">
      <g id="Group_59" data-name="Group 59">
        <path id="Path_23" data-name="Path 23" d="M262.706,324.653h-4.722a1.472,1.472,0,0,0,0,2.945h4.722a1.472,1.472,0,0,0,0-2.945Z" transform="translate(-256.512 -324.653)"/>
      </g>
    </g>
  </g>
</svg>
