<svg xmlns="http://www.w3.org/2000/svg" width="121" height="121.001" viewBox="0 0 121 121.001">
  <g id="cricket" transform="translate(-0.002 0)" opacity="0.67">
    <g id="Group_108" data-name="Group 108" transform="translate(0.002 0)">
      <path id="Path_52" data-name="Path 52" d="M119.823,6.881l-1.9-1.9-.95-.951L115.548,2.6h0L114.123,1.18a4.033,4.033,0,0,0-5.7,0l-2.85,2.85a4.016,4.016,0,0,0-1.029,3.88l-17.5,17.5c-.116.116-.224.216-.339.33v-5.55c0-.123-.025-.239-.036-.36A6.031,6.031,0,0,0,84.69,8.1H36.317a6.031,6.031,0,0,0-1.979,11.733c-.011.121-.036.237-.036.36V63.918L2.97,95.249a10.031,10.031,0,0,0,0,14.243l8.541,8.541a10.03,10.03,0,0,0,14.243.005l9.5-9.5,1.142,9.134a1.886,1.886,0,0,0,.043.234,4.03,4.03,0,0,0,7.822,0,1.85,1.85,0,0,0,.043-.234l2.077-16.609c.006-.043-.012-.082-.009-.125s.025-.08.025-.125V97.392l8.062-8.062v11.481c0,.046.023.085.026.13s-.016.079-.011.12l2.077,16.613c.01.08.026.159.043.238a4.031,4.031,0,0,0,7.822,0c.018-.079.033-.158.043-.238l2.077-16.613c.005-.041-.013-.079-.011-.12s.026-.084.026-.13V77.236l8.062-8.062V100.81c0,.046.023.085.026.13s-.016.079-.011.12L76.7,117.674c.01.08.026.159.043.238a4.031,4.031,0,0,0,7.822,0c.018-.079.033-.158.043-.238L86.69,101.06c.005-.041-.013-.079-.011-.12s.026-.084.026-.13v-57a119.944,119.944,0,0,1,8.889-9.854l17.5-17.5a3.921,3.921,0,0,0,3.879-1.029l2.85-2.85A4.033,4.033,0,0,0,119.823,6.881ZM34.3,14.142a2.015,2.015,0,0,1,2.015-2.015H84.69a2.015,2.015,0,1,1,0,4.031H36.317A2.015,2.015,0,0,1,34.3,14.142Zm48.373,6.047v9.394c-1.421,1.3-2.763,2.464-4.031,3.517V20.189ZM66.55,41.349V20.189h8.062V36.271A54.273,54.273,0,0,1,66.55,41.349Zm.791,7.131,5.182,5.182L54.382,66.621ZM62.519,20.195V39.417a6.105,6.105,0,0,0-4.031.641V20.189Zm-8.062-.006V43.763l-8.062,8.062V20.189Zm-12.093.006V55.855l-4.031,4.031v-39.7Zm-2.015,96.611-1.486-11.882,2.686-2.686,0,0,.708-.708Zm20.155.005-1.748-13.985h3.5Zm2.015-18.016H58.488V85.3l4.031-4.031V98.795ZM77.057,61.03,40.048,98.038,38.7,99.384v0L22.893,115.192a6.138,6.138,0,0,1-8.531,0l-8.55-8.55a6,6,0,0,1,0-8.533L59.984,43.936a2,2,0,0,1,2.824.013l.3.3,1.34,1.34L44.17,73.983,15.784,102.369a2.015,2.015,0,0,0,2.85,2.85L47.021,76.833l28.393-20.28.231.231,0,0L77.065,58.2a1.962,1.962,0,0,1-.008,2.825Zm3.6,55.781-1.748-13.985h3.5Zm2.016-18.016H78.644V65.144L79.9,63.889a5.99,5.99,0,0,0,.008-8.544l-.464-.464a42.911,42.911,0,0,1,3.232-5.591ZM76.442,51.863l-7.3-7.3A79.813,79.813,0,0,0,85.523,32.438l3.042,3.042A79.729,79.729,0,0,0,76.442,51.863Zm16.3-20.754c-.493.493-.941.963-1.408,1.443l-2.885-2.886c.48-.467.95-.914,1.443-1.407l17.1-17.1,2.85,2.85Zm21.38-18.526-5.7-5.7,2.85-2.85,3.8,3.8.475.475h0l1.424,1.424Z" transform="translate(-0.002 0)"/>
    </g>
  </g>
</svg>
