<svg xmlns="http://www.w3.org/2000/svg" width="140.767" height="121" viewBox="0 0 140.767 121">
  <g id="bicycle" transform="translate(0 -34.868)" opacity="0.67">
    <path id="XMLID_512_" d="M41.578,307.781a20.218,20.218,0,0,1-12.373,4.288,20.419,20.419,0,1,1,18.855-28.216l6.394-6.631a29.207,29.207,0,1,0-5.616,35.92,14.5,14.5,0,0,1-5.5-3.287A14.812,14.812,0,0,1,41.578,307.781Z" transform="translate(0 -164.988)"/>
    <path id="XMLID_513_" d="M175.308,138.542l-15.465-8.6c6.9-4.132,4.339-2.6,11.237-6.734l-.217,2.1a7.2,7.2,0,0,0,5.853,7.528c.083.016,27.149,4.42,28.136,4.42a7.239,7.239,0,0,0,7.215-5.863,7.045,7.045,0,0,0-6.024-8.062l-19.926-3.169.948-9.1c.955-5.817,1.37-7.641-.9-11.111l-2.852-4.365a12.928,12.928,0,0,0-17.353-3.821l-31.216,18.71c-7.667,4.6-11.406,14.285-5.147,21.413,2.445,2.785,26.221,16.772,26.221,16.772l-19.256,19.121a8.157,8.157,0,0,0,.226,11.894,9.063,9.063,0,0,0,12.424-.217l28.007-27.8A8.211,8.211,0,0,0,175.308,138.542Z" transform="translate(-92.344 -38.924)"/>
    <path id="XMLID_514_" d="M351.144,61.891a14.624,14.624,0,1,0-20.154-4.643A14.623,14.623,0,0,0,351.144,61.891Z" transform="translate(-237.191)"/>
    <path id="XMLID_515_" d="M326.525,262.443a29.207,29.207,0,1,0,29.206,29.208A29.336,29.336,0,0,0,326.525,262.443Zm0,49.625a20.419,20.419,0,1,1,20.418-20.417A20.442,20.442,0,0,1,326.525,312.068Z" transform="translate(-214.964 -164.988)"/>
  </g>
</svg>
