<svg id="dribbble" xmlns="http://www.w3.org/2000/svg" width="40" height="40" viewBox="0 0 40 40">
  <circle id="Ellipse_2" data-name="Ellipse 2" cx="20" cy="20" r="20" transform="translate(0 0)" fill="#f26798"/>
  <g id="Group_111" data-name="Group 111" transform="translate(7.232 7.248)">
    <path id="Path_65" data-name="Path 65" d="M33.194,20.472A12.752,12.752,0,1,0,45.963,33.224,12.775,12.775,0,0,0,33.194,20.472Zm8.4,6.019a10.708,10.708,0,0,1,2.382,6.569,26.645,26.645,0,0,0-4.99-.482,20.169,20.169,0,0,0-2.459.143c-.071-.171-.141-.342-.215-.515-.217-.509-.45-1.015-.692-1.513a14.692,14.692,0,0,0,5.973-4.2Zm-8.4-4.023A10.75,10.75,0,0,1,40.3,25.144a12.315,12.315,0,0,1-5.571,3.824,58.31,58.31,0,0,0-3.968-6.222,10.768,10.768,0,0,1,2.432-.277Zm-4.634,1.045a69.673,69.673,0,0,1,3.947,6.145,40.829,40.829,0,0,1-9.75,1.3h-.106a10.816,10.816,0,0,1,5.909-7.443Zm-6.154,9.728q0-.133,0-.266h.283a40.381,40.381,0,0,0,10.774-1.532c.291.568.567,1.145.825,1.722-.121.035-.24.069-.359.108a17.25,17.25,0,0,0-8.811,7.1,10.719,10.719,0,0,1-2.716-7.138ZM33.194,44.013a10.743,10.743,0,0,1-6.579-2.243,14.9,14.9,0,0,1,8.453-6.688l.012,0a44.894,44.894,0,0,1,2.281,8.1,10.727,10.727,0,0,1-4.167.837Zm6.11-1.9a47.127,47.127,0,0,0-2.067-7.564,14.145,14.145,0,0,1,2.171-.163,16.03,16.03,0,0,1,4.428.619A10.793,10.793,0,0,1,39.3,42.115Z" transform="translate(-20.426 -20.472)" fill="#f1f2f2"/>
  </g>
</svg>
