<svg xmlns="http://www.w3.org/2000/svg" width="121.606" height="121.606" viewBox="0 0 121.606 121.606">
  <g id="soccer" transform="translate(0.001 0.001)" opacity="0.67">
    <path id="Path_53" data-name="Path 53" d="M195.141,165.7l1.368-2.686-3.6-1.832-1.368,2.683-21.428,3.393-2.127-2.127-2.857,2.857,2.127,2.127-3.393,21.428-2.683,1.368,1.833,3.6,2.685-1.368,19.328,9.847.472,2.976,3.991-.632-.471-2.974,15.34-15.34,2.974.47.632-3.99-2.976-.472Zm-8.67,35.492-18.548-9.45,3.251-20.566,20.561-3.257,9.45,18.548Zm0,0" transform="translate(-122.898 -122.898)"/>
    <path id="Path_54" data-name="Path 54" d="M153.734,156.592l2.858-2.858,2.858,2.858-2.858,2.858Zm0,0" transform="translate(-117.221 -117.221)"/>
    <path id="Path_55" data-name="Path 55" d="M130.852,304.338l3.6-1.833,1.833,3.6-3.6,1.833Zm0,0" transform="translate(-99.774 -230.657)"/>
    <path id="Path_56" data-name="Path 56" d="M266.242,373.112l3.992-.631.631,3.993-3.993.631Zm0,0" transform="translate(-203.007 -284.013)"/>
    <path id="Path_57" data-name="Path 57" d="M372.285,270.226l.631-3.991,3.991.631-.631,3.991Zm0,0" transform="translate(-283.864 -203.001)"/>
    <path id="Path_58" data-name="Path 58" d="M302.48,134.453l1.833-3.6,3.6,1.832-1.833,3.6Zm0,0" transform="translate(-230.638 -99.774)"/>
    <path id="Path_59" data-name="Path 59" d="M103.664,17.941a60.616,60.616,0,1,0-86.1,85.348l.375.375a60.616,60.616,0,1,0,86.1-85.348l-.375-.375ZM75.866,6.263a55.985,55.985,0,0,1,20.205,10.3l-.837,5.286-15.87,2.511L72.071,10.051ZM20.8,20.8a57.082,57.082,0,0,1,8.821-7.213L34.4,16.021l-2.513,15.87L16.021,34.4l-2.438-4.786A57.082,57.082,0,0,1,20.8,20.8ZM6.263,75.865l3.794-3.794L24.37,79.364l-2.511,15.87-5.286.837A55.974,55.974,0,0,1,6.263,75.865Zm52.006,41.45-2.424-4.769,11.361-11.359,14.307,7.3-.84,5.308a56.52,56.52,0,0,1-19.87,3.582c-.849,0-1.693-.024-2.534-.062Zm42.54-16.506a56.609,56.609,0,0,1-15.76,11.135l.906-5.73L66.409,96.253,50.9,111.766l2.614,5.132a56.131,56.131,0,0,1-32.72-16.09c-.372-.373-.726-.759-1.087-1.141l5.68-.9L28.824,77.1,9.279,67.139,5.2,71.22A57.288,57.288,0,0,1,4.228,60.8a56.264,56.264,0,0,1,6.9-27.105l2.627,5.158L35.421,35.42l3.435-21.667L33.7,11.126A56.267,56.267,0,0,1,60.8,4.228a57.367,57.367,0,0,1,10.418.963L67.139,9.279,77.1,28.826l21.668-3.435.9-5.68c.382.362.768.715,1.142,1.087A56.133,56.133,0,0,1,116.9,53.531L111.766,50.9,96.253,66.414l9.961,19.546,5.73-.911a56.607,56.607,0,0,1-11.134,15.759Zm12.982-20.134-5.3.838L101.192,67.2l11.36-11.362,4.768,2.424c.039.841.063,1.686.063,2.534a56.53,56.53,0,0,1-3.594,19.876Zm0,0"/>
  </g>
</svg>
