<svg id="linkedin" xmlns="http://www.w3.org/2000/svg" width="40" height="40" viewBox="0 0 40 40">
  <path id="Path_62" data-name="Path 62" d="M20,0A20,20,0,1,1,0,20,20,20,0,0,1,20,0Z" fill="#0e76a8"/>
  <path id="Path_63" data-name="Path 63" d="M81.954,91.482h4V78.162h-4ZM97.522,77.7a6,6,0,0,0-4.906,2.272V78.119H88.606V91.482h4.011V84.255a3.172,3.172,0,0,1,3.152-3.017c1.753,0,2.185,1.49,2.185,2.98v7.263h4v-7.56C101.949,78.669,99.463,77.7,97.522,77.7Zm-13.589-.87a2,2,0,1,0-2-2A2,2,0,0,0,83.934,76.831Z" transform="translate(-71.349 -63.35)" fill="#fff"/>
</svg>
