<svg xmlns="http://www.w3.org/2000/svg" width="152.565" height="121" viewBox="0 0 152.565 121">
  <g id="video-player" transform="translate(0 -6)" opacity="0.67">
    <path id="Path_49" data-name="Path 49" d="M58.259,40.554,28.2,21.426A2.732,2.732,0,0,0,24,23.732V61.989a2.734,2.734,0,0,0,4.2,2.306L58.259,45.167a2.735,2.735,0,0,0,0-4.613ZM29.465,57.013v-28.3L51.7,42.86Z" transform="translate(38.422 23.64)"/>
    <path id="Path_50" data-name="Path 50" d="M149.935,6H2.63A2.63,2.63,0,0,0,0,8.63V124.37A2.63,2.63,0,0,0,2.63,127h147.3a2.63,2.63,0,0,0,2.63-2.63V8.63A2.63,2.63,0,0,0,149.935,6ZM26.3,63.87H5.261V40.2H26.3ZM5.261,69.13H26.3V92.8H5.261Zm26.3,26.3V11.261H121V121.739H31.565ZM147.3,63.87H126.261V40.2H147.3ZM126.261,69.13H147.3V92.8H126.261ZM147.3,11.261V34.935H126.261V11.261Zm-142.043,0H26.3V34.935H5.261Zm0,110.478V98.065H26.3v23.674Zm142.043,0H126.261V98.065H147.3Z" transform="translate(0 0)"/>
  </g>
</svg>
