<svg xmlns="http://www.w3.org/2000/svg" width="122.098" height="121" viewBox="0 0 122.098 121">
  <g id="headphones" transform="translate(0 -2.1)" opacity="0.67">
    <path id="Path_51" data-name="Path 51" d="M122.1,63.149A61.056,61.056,0,0,0,17.876,19.976,60.668,60.668,0,0,0,0,63.149v28.9a29.679,29.679,0,0,0,29.636,29.636,3.513,3.513,0,0,0,3.528-3.528V65.971a3.513,3.513,0,0,0-3.528-3.528A29.538,29.538,0,0,0,7.056,72.9V63.149a53.993,53.993,0,0,1,107.985,0,3.245,3.245,0,0,0,.078.706,3.245,3.245,0,0,0-.078.706v9.748a29.538,29.538,0,0,0-22.58-10.454,3.513,3.513,0,0,0-3.528,3.528v52.189a3.513,3.513,0,0,0,3.528,3.528A29.679,29.679,0,0,0,122.1,93.464V64.56a3.244,3.244,0,0,0-.078-.706A3.244,3.244,0,0,0,122.1,63.149ZM26.082,69.761v44.584a22.568,22.568,0,0,1,0-44.584Zm69.934,46V71.172a22.568,22.568,0,0,1,0,44.584Z" transform="translate(0 0)"/>
  </g>
</svg>
