<svg xmlns="http://www.w3.org/2000/svg" width="121.003" height="121" viewBox="0 0 121.003 121">
  <g id="study" transform="translate(0 -0.006)" opacity="0.67">
    <g id="Group_107" data-name="Group 107" transform="translate(0 0.006)">
      <path id="Path_48" data-name="Path 48" d="M113.912,64.662V53.417a3.545,3.545,0,0,0-3.545-3.545,106.941,106.941,0,0,0-20.6,1.88,32.007,32.007,0,0,0-13.309-7.706,24.815,24.815,0,1,0-31.911,0,32.012,32.012,0,0,0-13.309,7.706,106.96,106.96,0,0,0-20.6-1.88A3.545,3.545,0,0,0,7.09,53.417V64.662A10.652,10.652,0,0,0,0,74.687v7.09A10.652,10.652,0,0,0,7.09,91.8v11.245a3.545,3.545,0,0,0,3.545,3.545c18.535,0,33.756,4.392,47.9,13.821a3.556,3.556,0,0,0,3.933,0c14.144-9.429,29.364-13.821,47.9-13.821a3.545,3.545,0,0,0,3.545-3.545V91.8A10.652,10.652,0,0,0,121,81.777v-7.09A10.653,10.653,0,0,0,113.912,64.662Zm-71.136-39.6A17.725,17.725,0,1,1,60.5,42.782,17.864,17.864,0,0,1,42.776,25.057ZM10.635,85.322A3.549,3.549,0,0,1,7.09,81.777v-7.09a3.545,3.545,0,1,1,7.09,0v7.09A3.549,3.549,0,0,1,10.635,85.322ZM56.956,111.1c-12.869-7.36-26.679-11.079-42.776-11.549V91.8a10.652,10.652,0,0,0,7.09-10.025v-7.09a10.652,10.652,0,0,0-7.09-10.025v-7.65c16.657.478,30.046,4.4,42.776,12.506ZM60.5,63.376A84.25,84.25,0,0,0,39.877,53.9a24.867,24.867,0,0,1,13.534-4.023h14.18A24.867,24.867,0,0,1,81.125,53.9,84.246,84.246,0,0,0,60.5,63.376Zm46.321,36.177c-16.1.47-29.907,4.191-42.776,11.55V69.521c12.731-8.106,26.119-12.031,42.776-12.509v7.65a10.652,10.652,0,0,0-7.09,10.025v7.09a10.652,10.652,0,0,0,7.09,10.025Zm7.09-17.776a3.545,3.545,0,0,1-7.09,0v-7.09a3.545,3.545,0,1,1,7.09,0Z" transform="translate(0 -0.006)"/>
    </g>
  </g>
</svg>
