<svg xmlns="http://www.w3.org/2000/svg" width="88.273" height="79.305" viewBox="0 0 88.273 79.305">
  <g id="diploma-roll" transform="translate(0 -1.56)">
    <path id="Path_24" data-name="Path 24" d="M81.322,4.852l-1.329-1.38L78.656,4.849q-1.682,1.73-3.3,3.37c-2.643-2.375-8.809-6.965-16.743-6.643l-1.03.043-.509.9C47.871,18.8,13.7,42.074,9.708,44.757a13.3,13.3,0,0,0-5.021,3.468C-1.8,54.963-.745,65.2,2.99,71.867c3.209,5.732,8.187,9,13.439,9a12.912,12.912,0,0,0,2.775-.3,10.931,10.931,0,0,0,6.079-3.618c2.542-2.605,15.213-15.495,27.34-26.17,1.254,1.487,4.633,5.763,6.01,10.258a86.089,86.089,0,0,1,2.444,14.117l2.781-6.045,4.02,1.268s-.59-7.791-2.913-12.28A92.329,92.329,0,0,0,59.4,48.976s6,3.022,9.427,6.8,6.557,11.44,6.557,11.44l2.281-4.458,6.583-1.55S74.052,51.952,71.6,50.212c-2.174-1.55-8.182-5.435-9.835-7.123C71.34,35.451,80.14,29.469,80.9,29.038c4.216-2.384,6.727-5.588,7.261-9.254C88.828,15.277,86.527,10.247,81.322,4.852ZM25.5,49.839c1.2,6.839,2.269,25.04-7.095,27.1-5.461,1.2-9.873-2.767-12.179-6.888C3.143,64.548,2.182,56.177,7.362,50.8c2.591-2.7,4.952-3.46,7.02-2.286a9.238,9.238,0,0,1,3.365,3.908c-1.346,1.306-4.184,3.949-9.415,8.4l-.828.707.21,1.07c1.38,6.89,5.151,7.759,6.706,7.816,3.629.072,7.077-3.247,8.5-8.4,1.208-4.386-1.122-13.545-6.7-16.717-.127-.075-.262-.144-.405-.219,4.843-3.368,12.933-9.211,21.063-15.955,3.3.621,7.627,2.025,10.339,5.165-14.4,11.762-20.229,13.407-20.3,13.421l-1.717.391Zm-6.361,6.384a10.464,10.464,0,0,1,.2,4.8c-1.021,3.716-3.178,5.688-4.725,5.688a.226.226,0,0,1-.063-.006c-1.237-.043-2.306-1.438-2.956-3.79C15.2,59.823,17.6,57.658,19.135,56.223ZM29.287,67.66a56.888,56.888,0,0,0,.1-16.924C32.094,49.6,38.3,46.347,49.208,37.464a29.188,29.188,0,0,1,2.7,9.016C43.75,53.546,35.136,61.862,29.287,67.66ZM45.653,21.428C51.474,16,56.642,10.391,59.754,5.272c5.97.144,10.79,3.67,12.979,5.585C66.285,17.3,60.619,22.636,55.676,27.039A14.486,14.486,0,0,0,45.653,21.428ZM84.5,19.257c-.371,2.528-2.191,4.736-5.424,6.568-1.17.661-9.168,6.16-17.945,13.056-.023-1.711-.518-4.17-3.33-8.751,6.232-5.539,13.568-12.51,22.155-21.3C83.4,12.781,84.931,16.283,84.5,19.257Z" transform="translate(0 0)"/>
  </g>
</svg>
