<svg xmlns="http://www.w3.org/2000/svg" width="125.442" height="121" viewBox="0 0 125.442 121">
  <g id="world" transform="translate(0 -6.948)" opacity="0.67">
    <g id="Group_63" data-name="Group 63" transform="translate(17.292 107.022)">
      <g id="Group_62" data-name="Group 62">
        <path id="Path_25" data-name="Path 25" d="M59.892,325.951q-.062-.055-.128-.106c-1.316-1.092-2.632-2.263-3.842-3.474a1.968,1.968,0,1,0-2.776,2.789,50.341,50.341,0,0,0,4.105,3.724,1.974,1.974,0,1,0,2.641-2.934Z" transform="translate(-52.569 -321.801)"/>
      </g>
    </g>
    <g id="Group_65" data-name="Group 65" transform="translate(0.405 54.551)">
      <g id="Group_64" data-name="Group 64" transform="translate(0 0)">
        <path id="Path_26" data-name="Path 26" d="M4.787,156.308a1.974,1.974,0,0,0-2.616,1.685c-.395,1.8-.7,3.631-.921,5.46a1.974,1.974,0,0,0,1.671,2.21h.25a1.973,1.973,0,0,0,1.96-1.737c.211-1.71.5-3.434.868-5.105A1.973,1.973,0,0,0,4.787,156.308Z" transform="translate(-1.232 -156.197)"/>
      </g>
    </g>
    <g id="Group_67" data-name="Group 67" transform="translate(8.273 96.157)">
      <g id="Group_66" data-name="Group 66">
        <path id="Path_27" data-name="Path 27" d="M31.681,291.843c-1.013-1.395-1.974-2.842-2.855-4.316a1.974,1.974,0,0,0-2.705-.687l-.005,0a1.974,1.974,0,0,0-.687,2.705l0,.005c.947,1.579,1.974,3.131,3.066,4.618a1.974,1.974,0,0,0,3.184-2.329Z" transform="translate(-25.15 -286.562)"/>
      </g>
    </g>
    <g id="Group_69" data-name="Group 69" transform="translate(2.328 83.064)">
      <g id="Group_68" data-name="Group 68">
        <path id="Path_28" data-name="Path 28" d="M12.671,251.885c-.632-1.592-1.21-3.237-1.7-4.895a1.974,1.974,0,0,0-2.445-1.346l-.055.017a1.974,1.974,0,0,0-1.316,2.447c.526,1.763,1.132,3.526,1.816,5.263a1.992,1.992,0,0,0,3.7-1.487Z" transform="translate(-7.076 -245.566)"/>
      </g>
    </g>
    <g id="Group_71" data-name="Group 71" transform="translate(4.049 41.338)">
      <g id="Group_70" data-name="Group 70">
        <path id="Path_29" data-name="Path 29" d="M17.36,114.965a1.974,1.974,0,0,0-2.651.875c-.829,1.645-1.592,3.342-2.263,5.066a1.971,1.971,0,0,0,3.667,1.444l0-.01a47.455,47.455,0,0,1,2.118-4.724A1.974,1.974,0,0,0,17.36,114.965Z" transform="translate(-12.309 -114.753)"/>
      </g>
    </g>
    <g id="Group_73" data-name="Group 73" transform="translate(0 69.02)">
      <g id="Group_72" data-name="Group 72">
        <path id="Path_30" data-name="Path 30" d="M4.37,208.619v-.005c-.211-1.71-.355-3.447-.421-5.158A1.975,1.975,0,0,0,0,203.6a43.255,43.255,0,0,0,.447,5.526,1.974,1.974,0,0,0,1.908,1.7h.3A1.974,1.974,0,0,0,4.37,208.619Z" transform="translate(0 -201.553)"/>
      </g>
    </g>
    <g id="Group_75" data-name="Group 75" transform="translate(45.849 10.395)">
      <g id="Group_74" data-name="Group 74">
        <path id="Path_31" data-name="Path 31" d="M153.187,19.22a1.983,1.983,0,0,0-2.164-1.783c-1.829.184-3.671.447-5.487.8a1.982,1.982,0,1,0,.368,3.947l-.013-.053h.382c1.7-.329,3.421-.579,5.131-.75A1.983,1.983,0,0,0,153.187,19.22Z" transform="translate(-143.738 -17.428)"/>
      </g>
    </g>
    <g id="Group_77" data-name="Group 77" transform="translate(11.046 29.484)">
      <g id="Group_76" data-name="Group 76">
        <path id="Path_32" data-name="Path 32" d="M40.208,78.079a1.986,1.986,0,0,0-2.8.171c-1.21,1.382-2.368,2.842-3.447,4.342a1.974,1.974,0,0,0,1.592,3.131v.026a1.973,1.973,0,0,0,1.605-.816c1.013-1.395,2.092-2.763,3.224-4.052A1.986,1.986,0,0,0,40.208,78.079Z" transform="translate(-33.582 -77.58)"/>
      </g>
    </g>
    <g id="Group_79" data-name="Group 79" transform="translate(60.247 10.151)">
      <g id="Group_78" data-name="Group 78" transform="translate(0 0)">
        <path id="Path_33" data-name="Path 33" d="M196.482,17.268c-1.816-.276-3.671-.474-5.513-.579a1.977,1.977,0,1,0-.237,3.947c1.737.132,3.46.316,5.158.579h.3a1.979,1.979,0,0,0,.289-3.947Z" transform="translate(-188.873 -16.685)"/>
      </g>
    </g>
    <g id="Group_81" data-name="Group 81" transform="translate(20.458 20.472)">
      <g id="Group_80" data-name="Group 80">
        <path id="Path_34" data-name="Path 34" d="M71.906,48.867a1.974,1.974,0,0,0-2.656-.49c-1.513,1.039-3,2.171-4.421,3.342a1.976,1.976,0,1,0,2.526,3.039c1.316-1.105,2.71-2.158,4.131-3.131A1.974,1.974,0,0,0,71.906,48.867Z" transform="translate(-64.116 -48.064)"/>
      </g>
    </g>
    <g id="Group_84" data-name="Group 84" transform="translate(32.505 13.606)">
      <g id="Group_83" data-name="Group 83">
        <g id="Group_82" data-name="Group 82">
          <path id="Path_35" data-name="Path 35" d="M107.843,45.653h0Z" transform="translate(-105.859 -39.579)"/>
          <path id="Path_36" data-name="Path 36" d="M110.836,28.641a1.974,1.974,0,0,0-2.7-1.284,49.311,49.311,0,0,0-5.105,2.145,1.964,1.964,0,1,0,1.645,3.566c1.553-.737,3.158-1.408,4.776-2A1.974,1.974,0,0,0,110.836,28.641Z" transform="translate(-101.892 -27.189)"/>
        </g>
      </g>
    </g>
    <g id="Group_86" data-name="Group 86" transform="translate(55.288 123.878)">
      <g id="Group_85" data-name="Group 85">
        <path id="Path_37" data-name="Path 37" d="M182.631,374.9a1.977,1.977,0,0,0-2.1-1.849,48.7,48.7,0,0,1-5.184.118,1.974,1.974,0,0,0-.105,3.947h1.671c1.316,0,2.631,0,3.868-.118A1.977,1.977,0,0,0,182.631,374.9Z" transform="translate(-173.322 -373.044)"/>
      </g>
    </g>
    <g id="Group_88" data-name="Group 88" transform="translate(110.339 81.126)">
      <g id="Group_87" data-name="Group 87">
        <path id="Path_38" data-name="Path 38" d="M350.466,239.551a1.975,1.975,0,0,0-2.4,1.428c-.421,1.671-.934,3.329-1.513,4.947a1.97,1.97,0,0,0,3.722,1.3l0-.006c.618-1.737,1.158-3.513,1.618-5.263A1.975,1.975,0,0,0,350.466,239.551Z" transform="translate(-346.447 -239.489)"/>
      </g>
    </g>
    <g id="Group_90" data-name="Group 90" transform="translate(111.869 52.652)">
      <g id="Group_89" data-name="Group 89">
        <path id="Path_39" data-name="Path 39" d="M356.107,157.054c-.3-1.816-.684-3.645-1.145-5.421a1.974,1.974,0,0,0-3.816,1c.434,1.658.789,3.368,1.079,5.066a1.974,1.974,0,0,0,1.921,1.618h.329A1.973,1.973,0,0,0,356.107,157.054Z" transform="translate(-351.099 -150.23)"/>
      </g>
    </g>
    <g id="Group_92" data-name="Group 92" transform="translate(14.07 6.948)">
      <g id="Group_91" data-name="Group 91">
        <path id="Path_40" data-name="Path 40" d="M153.976,37.259a1.853,1.853,0,0,0-.363-.526l-3.377-3.517a1.847,1.847,0,0,0-1.848-.459L142.3,34.605l-7.136-7.568,16.018-8.919a1.86,1.86,0,0,0,.548-2.994l-4.5-4.5a1.861,1.861,0,0,0-1.848-.433l-20.3,6.141-6.83-7.25a6.181,6.181,0,0,0-7.034-1.669H111.1a7.518,7.518,0,0,0-4.091,4.09,6.886,6.886,0,0,0-.408,1.5l-.777-.268a1.914,1.914,0,1,0-1.172,3.644c.981.319,1.962.675,2.944,1.045a7.337,7.337,0,0,0,1.032,1.274l7.2,6.829-2.064,6.816a44.9,44.9,0,1,0,9.494,9.148l3.262-5.886,7.57,7.135-1.822,6.027a1.847,1.847,0,0,0,.446,1.886s3.734,3.695,3.823,3.822a1.848,1.848,0,0,0,2.525-.672l.023-.042,4.983-9.135,9-4.905A1.86,1.86,0,0,0,153.976,37.259ZM58.828,39.778A40.923,40.923,0,0,1,87.793,27.8q1.274,0,2.549.076c7.225,6.664,5.1,12.741.255,18.22a89.443,89.443,0,0,1-9.175,8.46c-4.7,4-9.086,7.734-10.743,11.467-1.962,4.434-.522,8.447,7.4,11.951,3.963,1.758,6.117,3.122,6.958,4.154a.205.205,0,0,0,.037.035l-.088.029a15.84,15.84,0,0,1-6.015,1.032c-9.608.408-16.452-5.734-21.765-10.486-3.823-3.4-7-6.23-10.3-6.256A40.91,40.91,0,0,1,58.828,39.778ZM128.9,68.8h.013a41.078,41.078,0,0,1-28.3,39.026,13.365,13.365,0,0,1,1.567-8.677,31.59,31.59,0,0,1,7.646-8.409c11.762-9.811,12.425-15.289,12.934-19.507.319-2.663.561-4.65,5.824-7.543A41.5,41.5,0,0,1,128.9,68.8Zm-2.37-13.786a40.646,40.646,0,0,1,1.4,4.905c-8.016,4.077-8.372,6.982-8.857,10.945-.433,3.568-.994,8.231-11.622,17.1a34.85,34.85,0,0,0-8.538,9.467,16.894,16.894,0,0,0-1.911,11.378A41.054,41.054,0,0,1,46.824,70.242c2.026,0,4.651,2.408,7.875,5.275C60.536,80.728,68,87.378,79.128,86.983a19.117,19.117,0,0,0,7.646-1.452,3.823,3.823,0,0,0,2.115-2.4,3.643,3.643,0,0,0-.918-3.325c-1.2-1.465-3.823-3.2-8.334-5.211-5.39-2.383-6.563-4.7-5.505-7.071,1.274-2.981,5.378-6.371,9.736-10.193a92.756,92.756,0,0,0,9.57-8.919c5.327-6.065,8.066-12.677,2.651-19.914a40.78,40.78,0,0,1,16.566,7.53l-2.931,9.67a1.86,1.86,0,0,0,.446,1.886s4.753,4.714,4.906,4.8a1.848,1.848,0,0,0,2.525-.672l.023-.042,3.708-6.7A40.963,40.963,0,0,1,126.533,55.016Zm17.089-14.232-1.644.815a1.835,1.835,0,0,0-.841.854l-.816,1.656-3.173,5.733-.93-1.019,1.848-6.1a1.847,1.847,0,0,0-.6-1.962l-10.054-9.467a1.848,1.848,0,0,0-2.613.023l-.05.053c-.127.14-9.175,16.436-9.175,16.436L113.6,45.83l6.168-20.322a1.847,1.847,0,0,0-.6-1.975l-8-7.53a2.65,2.65,0,0,1-.726-3.058,4,4,0,0,1,2.077-2.064h.064a2.651,2.651,0,0,1,2.982.764l7.646,8.078a1.848,1.848,0,0,0,1.886.51l20.389-6.154,1.975,1.975-16.184,8.893a1.847,1.847,0,0,0-.737,2.506l.023.042c.076.14,9.825,10.511,9.825,10.511a1.848,1.848,0,0,0,1.886.5l6.13-1.847.956.956Z" transform="translate(-42.775 -6.948)"/>
      </g>
    </g>
    <g id="Group_94" data-name="Group 94" transform="translate(103.701 94.383)">
      <g id="Group_93" data-name="Group 93">
        <path id="Path_41" data-name="Path 41" d="M332.058,281.286c-.029-.017-.058-.033-.087-.048a1.973,1.973,0,0,0-2.632.776c-.829,1.513-1.737,3-2.71,4.421a1.978,1.978,0,0,0,3.237,2.276c1.026-1.526,2-3.118,2.895-4.724A1.974,1.974,0,0,0,332.058,281.286Z" transform="translate(-326.269 -281.013)"/>
      </g>
    </g>
    <g id="Group_96" data-name="Group 96" transform="translate(113.487 66.688)">
      <g id="Group_95" data-name="Group 95">
        <path id="Path_42" data-name="Path 42" d="M358.264,194.256a1.974,1.974,0,0,0-2,1.946c0,.027,0,.053,0,.08v.224c0,1.724-.079,3.46-.237,5.184a1.973,1.973,0,0,0,1.786,2.144H358a1.974,1.974,0,0,0,1.987-1.829c.171-1.829.25-3.684.25-5.526v-.263A1.974,1.974,0,0,0,358.264,194.256Z" transform="translate(-356.019 -194.255)"/>
      </g>
    </g>
    <g id="Group_98" data-name="Group 98" transform="translate(41.088 121.744)">
      <g id="Group_97" data-name="Group 97">
        <path id="Path_43" data-name="Path 43" d="M136.493,367.825a40.766,40.766,0,0,1-5.052-1.158,1.974,1.974,0,1,0-1.079,3.79c1.763.5,3.579.934,5.395,1.316h.368a1.982,1.982,0,0,0,.368-3.948Z" transform="translate(-128.811 -366.555)"/>
      </g>
    </g>
    <g id="Group_100" data-name="Group 100" transform="translate(69.506 121.122)">
      <g id="Group_99" data-name="Group 99">
        <path id="Path_44" data-name="Path 44" d="M226.8,365.957a1.973,1.973,0,0,0-2.394-1.216v.053a39.23,39.23,0,0,1-4.987,1.316,1.976,1.976,0,0,0,.868,3.855c1.789-.408,3.592-.908,5.342-1.474A1.974,1.974,0,0,0,226.8,365.957Z" transform="translate(-217.876 -364.665)"/>
      </g>
    </g>
    <g id="Group_102" data-name="Group 102" transform="translate(28.075 115.979)">
      <g id="Group_101" data-name="Group 101">
        <path id="Path_45" data-name="Path 45" d="M95.565,351.761c-1.566-.776-3.105-1.618-4.592-2.46a1.976,1.976,0,0,0-2,3.408c1.592.934,3.237,1.8,4.908,2.631a1.978,1.978,0,1,0,1.684-3.579Z" transform="translate(-87.997 -349.029)"/>
      </g>
    </g>
    <g id="Group_104" data-name="Group 104" transform="translate(94.701 105.499)">
      <g id="Group_103" data-name="Group 103" transform="translate(0 0)">
        <path id="Path_46" data-name="Path 46" d="M303.87,317.687a1.973,1.973,0,0,0-2.755.091h.013a47.959,47.959,0,0,1-3.71,3.618,1.976,1.976,0,0,0,2.632,2.947c1.316-1.224,2.71-2.526,3.947-3.868A1.974,1.974,0,0,0,303.87,317.687Z" transform="translate(-296.758 -317.171)"/>
      </g>
    </g>
    <g id="Group_106" data-name="Group 106" transform="translate(82.908 114.899)">
      <g id="Group_105" data-name="Group 105">
        <path id="Path_47" data-name="Path 47" d="M268.221,346.707a1.974,1.974,0,0,0-2.707-.681q-.047.028-.093.059v-.053c-1.447.921-2.96,1.789-4.487,2.631a1.974,1.974,0,1,0,1.8,3.513c1.632-.842,3.25-1.776,4.8-2.763A1.974,1.974,0,0,0,268.221,346.707Z" transform="translate(-259.861 -345.746)"/>
      </g>
    </g>
  </g>
</svg>
