<svg xmlns="http://www.w3.org/2000/svg" width="40" height="40" viewBox="0 0 40 40">
  <g id="twitter_1_" data-name="twitter (1)" transform="translate(-0.001)">
    <circle id="Ellipse_3" data-name="Ellipse 3" cx="20" cy="20" r="20" transform="translate(0.001 0)" fill="#55acee"/>
    <g id="Group_112" data-name="Group 112" transform="translate(8.901 12.088)">
      <path id="Path_66" data-name="Path 66" d="M48.5,36.279a9.576,9.576,0,0,1-2.757.755,4.813,4.813,0,0,0,2.111-2.655A9.608,9.608,0,0,1,44.8,35.543a4.8,4.8,0,0,0-8.179,4.378,13.624,13.624,0,0,1-9.893-5.015,4.8,4.8,0,0,0,1.485,6.408,4.766,4.766,0,0,1-2.174-.6c0,.02,0,.041,0,.061a4.8,4.8,0,0,0,3.85,4.706,4.818,4.818,0,0,1-2.167.083A4.8,4.8,0,0,0,32.209,48.9,9.689,9.689,0,0,1,25.1,50.883a13.649,13.649,0,0,0,21.013-11.5c0-.208,0-.415-.014-.621a9.733,9.733,0,0,0,2.4-2.484Z" transform="translate(-25.103 -34.028)" fill="#f1f2f2"/>
    </g>
  </g>
</svg>
