<svg xmlns="http://www.w3.org/2000/svg" width="98.326" height="80.476" viewBox="0 0 98.326 80.476">
  <path id="cap" d="M97.385,18.283,66.292,6.429a1.46,1.46,0,1,0-1.04,2.729l27.514,10.49L73.719,26.91,49.765,16.064a1.46,1.46,0,0,0-1.2,2.661l21.314,9.651-20.712,7.9L5.559,19.648l43.6-16.624,10.745,4.1a1.46,1.46,0,1,0,1.04-2.729L49.683.1a1.461,1.461,0,0,0-1.041,0L.939,18.283A1.462,1.462,0,0,0,0,19.648v6.669a1.462,1.462,0,0,0,.94,1.365l14.9,5.679v5.061a1.46,1.46,0,1,0,2.92,0V34.474L48.642,45.868a1.459,1.459,0,0,0,1.041,0L72.211,37.28V60.391a49.478,49.478,0,0,1-53.455-4.735V44.262a1.46,1.46,0,1,0-2.92,0v12.1a1.459,1.459,0,0,0,.547,1.14A52.389,52.389,0,0,0,72.21,63.664v5.911a5.549,5.549,0,1,0,2.92,0V62.122A52.048,52.048,0,0,0,81.943,57.5a1.46,1.46,0,0,0,.548-1.14v-23l14.895-5.679a1.46,1.46,0,0,0,.94-1.365V19.648a1.462,1.462,0,0,0-.94-1.365ZM76.3,74.927A2.628,2.628,0,1,1,73.67,72.3,2.632,2.632,0,0,1,76.3,74.927ZM2.92,21.768,47.7,38.842v3.542L2.92,25.31Zm47.7,20.616V38.842L72.21,30.611v3.543ZM79.569,55.655a48.918,48.918,0,0,1-4.439,3.074V36.166l4.439-1.692ZM75.131,33.04V29.5L95.4,21.768V25.31Zm0,0" transform="translate(0 0)"/>
</svg>
