<svg xmlns="http://www.w3.org/2000/svg" xmlns:xlink="http://www.w3.org/1999/xlink" width="40" height="40" viewBox="0 0 40 40">
  <defs>
    <linearGradient id="linear-gradient" x1="-0.168" y1="0.683" x2="2.193" y2="-0.2" gradientUnits="objectBoundingBox">
      <stop offset="0" stop-color="#6a11cb"/>
      <stop offset="1" stop-color="#2575fc"/>
    </linearGradient>
    <linearGradient id="linear-gradient-2" x1="-1.043" y1="0.869" x2="1.124" y2="0.215" xlink:href="#linear-gradient"/>
  </defs>
  <g id="Group_114" data-name="Group 114" transform="translate(-1564 -723)">
    <path id="Path_71" data-name="Path 71" d="M20,0A20,20,0,1,1,0,20,20,20,0,0,1,20,0Z" transform="translate(1564 723)" fill="#cdcdcd"/>
    <g id="uplabs" transform="translate(1570.791 734.31)">
      <path id="Path_67" data-name="Path 67" d="M8.715,2.588V8.725A3.217,3.217,0,0,1,8.1,10.92a2.53,2.53,0,0,1-1.954.691,2.521,2.521,0,0,1-1.954-.65,3.266,3.266,0,0,1-.61-2.236V2.588H.209V8.725a6.712,6.712,0,0,0,1.1,4.146c.122.122.2.285.326.406a6.16,6.16,0,0,0,4.518,1.463,6.119,6.119,0,0,0,4.477-1.463,3.555,3.555,0,0,0,.326-.406,6.794,6.794,0,0,0,1.1-4.146V2.588Z" transform="translate(0 -1.45)" fill="url(#linear-gradient)"/>
      <path id="Path_68" data-name="Path 68" d="M59.454,16.5V1.1H62.71v1.91a4.842,4.842,0,0,1,1.628-1.748A4.465,4.465,0,0,1,66.577.69a4.873,4.873,0,0,1,3.907,1.666,6.891,6.891,0,0,1,1.424,4.593A6.926,6.926,0,0,1,70.484,11.5a4.621,4.621,0,0,1-3.744,1.707,4.714,4.714,0,0,1-2.361-.528,4.25,4.25,0,0,1-1.669-1.626,6.735,6.735,0,0,1,.081.976c0,.325.041.732.041,1.179v3.252H59.454Zm3.093-9.552a3.623,3.623,0,0,0,.773,2.479,2.85,2.85,0,0,0,2.157.894,2.6,2.6,0,0,0,2.157-.894,3.554,3.554,0,0,0,.773-2.479,3.623,3.623,0,0,0-.773-2.479,3.049,3.049,0,0,0-4.355.041,3.566,3.566,0,0,0-.733,2.439Z" transform="translate(-45.285)" fill="url(#linear-gradient-2)"/>
      <g id="Group_113" data-name="Group 113" transform="translate(1.338 14.665)">
        <path id="Path_70" data-name="Path 70" d="M14.661,61.885c-.122-.123-.2-.287-.326-.41A6.144,6.144,0,0,0,9.81,60a6.1,6.1,0,0,0-4.484,1.475,3.58,3.58,0,0,0-.326.41Z" transform="translate(-5 -60)" fill="#3a3a3a"/>
      </g>
    </g>
  </g>
</svg>
